<?xml version="1.0" standalone="no"?>
<!DOCTYPE svg PUBLIC "-//W3C//DTD SVG 20010904//EN"
 "http://www.w3.org/TR/2001/REC-SVG-20010904/DTD/svg10.dtd">
<svg version="1.0" xmlns="http://www.w3.org/2000/svg"
 width="288.000000pt" height="284.000000pt" viewBox="0 0 288.000000 284.000000"
 preserveAspectRatio="xMidYMid meet">
<metadata>
Created by potrace 1.10, written by Peter Selinger 2001-2011
</metadata>
<g transform="translate(0.000000,284.000000) scale(0.100000,-0.100000)"
fill="#000000" stroke="none">
<path d="M1370 2483 c-771 -65 -1239 -868 -910 -1561 265 -558 937 -786 1490
-507 396 201 638 646 590 1084 -60 544 -494 956 -1035 984 -49 2 -110 2 -135
0z m343 -47 c395 -101 699 -413 791 -810 26 -111 31 -217 12 -254 -38 -74
-250 -140 -580 -179 -178 -21 -775 -25 -936 -5 -216 26 -379 56 -455 84 -164
60 -181 80 -171 204 37 490 407 892 898 979 123 21 316 13 441 -19z m807
-1190 c-86 -635 -713 -1059 -1333 -902 -278 71 -520 252 -670 501 -70 118
-128 295 -143 439 l-7 69 23 -23 c67 -67 330 -132 655 -162 170 -15 644 -15
810 0 329 31 616 106 658 173 19 30 21 5 7 -95z"/>
<path d="M1868 2187 c-42 -78 -80 -141 -85 -140 -4 1 -9 -13 -10 -30 -4 -47 0
-41 141 228 12 22 26 43 31 47 6 4 6 8 1 8 -5 0 -3 7 4 15 7 8 9 15 4 15 -5 0
-44 -64 -86 -143z"/>
<path d="M776 2191 c-3 -5 1 -11 9 -14 9 -4 12 -1 8 9 -6 16 -10 17 -17 5z"/>
<path d="M1700 1929 c14 -4 20 -7 14 -8 -6 -1 -11 -7 -11 -13 0 -7 -3 -28 -7
-45 -5 -21 -4 -33 3 -33 6 0 13 12 17 28 3 15 8 34 10 44 6 21 34 32 34 13 0
-8 5 -15 10 -15 6 0 10 8 10 18 0 15 -9 18 -52 19 -39 0 -46 -2 -28 -8z"/>
<path d="M536 1903 c-8 -20 9 -40 19 -22 6 8 4 10 -5 4 -9 -5 -10 -2 -5 14 8
25 0 29 -9 4z"/>
<path d="M1636 1758 c-8 -13 -27 -49 -42 -80 l-27 -57 -41 5 c-51 7 -469 -12
-591 -27 -271 -31 -545 -111 -545 -159 0 -10 3 -11 8 -4 10 15 96 58 157 77
73 24 240 55 384 72 138 17 611 33 611 20 0 -17 -85 -161 -102 -173 -10 -7
-15 -18 -12 -24 5 -8 -15 -9 -64 -6 -39 3 -76 1 -84 -3 -8 -5 20 -9 69 -9 68
0 84 3 92 18 8 13 12 14 22 5 10 -10 9 -16 -6 -27 -11 -8 -24 -12 -29 -9 -5 4
-6 1 -2 -5 10 -16 31 -15 46 3 11 13 81 15 522 15 280 0 507 3 505 8 -3 4
-232 7 -510 7 -465 0 -506 1 -516 17 -6 10 -7 19 -1 23 5 3 15 18 23 33 8 15
27 51 43 81 l28 54 126 -7 c387 -21 709 -89 798 -170 19 -17 22 -18 16 -3 -24
65 -300 142 -613 171 -91 9 -200 16 -243 16 l-78 0 36 68 c20 37 41 73 46 80
7 8 7 12 -1 12 -6 0 -17 -10 -25 -22z"/>
<path d="M1222 1500 c26 -16 11 -50 -22 -50 -33 0 -70 -40 -70 -76 0 -26 14
-31 85 -32 28 0 42 2 33 5 -20 5 -23 29 -9 65 4 13 11 40 15 61 7 36 6 37 -21
37 -23 -1 -25 -2 -11 -10z m-7 -97 c-11 -60 -55 -76 -55 -20 0 37 15 57 43 57
17 0 18 -5 12 -37z"/>
<path d="M390 1398 c0 -5 159 -8 353 -8 235 0 347 4 337 10 -18 12 -690 9
-690 -2z"/>
<path d="M2246 752 c-3 -5 1 -9 9 -9 8 0 12 4 9 9 -3 4 -7 8 -9 8 -2 0 -6 -4
-9 -8z"/>
<path d="M2086 591 c-4 -5 -2 -12 3 -15 5 -4 12 -2 15 3 4 5 2 12 -3 15 -5 4
-12 2 -15 -3z"/>
<path d="M2225 2251 c-3 -5 -2 -12 3 -15 5 -3 9 1 9 9 0 17 -3 19 -12 6z"/>
<path d="M563 2103 c0 -9 4 -10 14 -2 7 6 13 12 13 14 0 1 -6 2 -13 2 -8 0
-14 -6 -14 -14z"/>
<path d="M2456 863 c-6 -14 -5 -15 5 -6 7 7 10 15 7 18 -3 3 -9 -2 -12 -12z"/>
<path d="M2206 543 c-6 -14 -5 -15 5 -6 7 7 10 15 7 18 -3 3 -9 -2 -12 -12z"/>
</g>
</svg>
